<?xml version="1.0" standalone="no"?><!DOCTYPE svg PUBLIC "-//W3C//DTD SVG 1.1//EN" "http://www.w3.org/Graphics/SVG/1.1/DTD/svg11.dtd"><svg t="1693321825146" class="icon" viewBox="0 0 1024 1024" version="1.1" xmlns="http://www.w3.org/2000/svg" p-id="7836" xmlns:xlink="http://www.w3.org/1999/xlink" width="16" height="16"><path d="M755.768889 494.364444H268.231111a26.737778 26.737778 0 0 0 0 53.570371h487.537778a26.737778 26.737778 0 1 0 0-53.570371zM755.768889 313.931852H268.231111a26.737778 26.737778 0 0 0 0 53.57037h487.537778a26.737778 26.737778 0 1 0 0-53.57037z" fill="#0097FF" p-id="7837"></path><path d="M380.965926 268.8a26.737778 26.737778 0 0 0-26.737778 26.737778v81.825185a26.737778 26.737778 0 0 0 53.570371 0v-81.73037a26.737778 26.737778 0 0 0-26.832593-26.832593zM651.472593 449.232593a26.737778 26.737778 0 0 0-26.737778 26.737777v81.730371a26.737778 26.737778 0 0 0 53.57037 0v-81.635556a26.737778 26.737778 0 0 0-26.832592-26.832592z" fill="#0097FF" p-id="7838"></path><path d="M833.232593 78.601481H190.767407A133.878519 133.878519 0 0 0 56.888889 212.48v428.373333a133.878519 133.878519 0 0 0 133.878518 133.878519h642.465186A133.878519 133.878519 0 0 0 967.111111 640.853333V212.48A133.878519 133.878519 0 0 0 833.232593 78.601481z m80.308148 562.157038a80.308148 80.308148 0 0 1-80.308148 80.308148H190.767407a80.308148 80.308148 0 0 1-80.308148-80.308148V212.48a80.308148 80.308148 0 0 1 80.308148-80.308148h642.465186a80.308148 80.308148 0 0 1 80.308148 80.308148zM144.402963 945.398519a28.444444 28.444444 0 1 1 0-56.888889h735.194074a28.444444 28.444444 0 1 1 0 56.888889z" fill="#0097FF" p-id="7839"></path></svg>